<svg xmlns="http://www.w3.org/2000/svg">
    <path d="M53.25,7.5a21,21,0,0,0-9,0c-.44.8-1.32,1.2-1.5,1.5v1.5H42v6.75c0,6.26-.2,13.64.75,18.75,1.35.71,1.18,1,3,1.5v.75c2.63,1.51,8.45-1.42,9-2.25,1.33-2,.75-6.6.75-9.75V1.5C64,3.52,63,14.14,63,24.75v10.5h-.75L61.5,39h-.75l-3,3.75h18V42C68,37.51,70.4,13.37,70.5.75h8.25c-.06,11.61-1.13,25.68.75,36l2.25.75v.75h6l2.25-3h.75V.75h7.5V36H97.5l-.75,3.75H96l-2.25,3h13.5V.75h7.5v42H127.5V42c-1.92-1.7-1.15-2.81-2.25-5.25h-.75v-1.5h-.75l-3-8.25H117V21c5.11.08,6.3-.73,9.75-1.5.72-2.83,2.61-5.6.75-9h-.75c-1.23-2,.65-1.45-2.25-2.25-1.28-1.19-5-.82-7.5-.75V.75c3.48-.07,8-.32,10.5.75,1.82.8,2.89,2.36,5.25,3l.75,2.25h.75v1.5H135c1.39,3.15.81,10.36-.75,12.75l-3,2.25-.75,1.5-2.25.75v2.25c2,1.9,1.13,2.78,2.25,5.25h.75v1.5H132V36h.75v1.5h.75V39h.75v1.5H135l.75,2.25H144V37.5h9V7.5h-9V.75h25.5V7.5h-9v30h9v5.25H180V.75h26.25V7.5H187.5V18.75H204V25.5H187.5v12h18.75v5.25h9V.75h7.5v42H235.5V42c-1.92-1.7-1.15-2.81-2.25-5.25h-.75v-1.5h-.75l-3-8.25h-4.5V21c2.45.09,6.22.43,7.5-.75,2.32-.53,3.19-1.46,3.75-3.75,2.08-2.19-.23-5.39-.75-7.5h-1.5l-.75-1.5h-8.25V.75C229.66.64,235.34.87,238.5,3L243,8.25c.27,3.55,1.07,5.14,0,8.25v3h-.75c-1,4-4.49,4.18-6.75,6.75l8.25,16.5H318v49.5h-6V66c0-2.91.69-8.12-.75-9.75-.44,6.07-3.32,11-4.5,16.5H304.5V63h.75L309,48.75H297.75v.75h.75l.75,4.5H300v2.25h.75V58.5h.75v2.25h.75V63H303v9.75h-2.25V72H300l-.75-4.5h-.75V65.25h-.75V63H297V60h-.75V57h-.75V92.25h-6c-1.26-3.43-.75-9.61-.75-14.25V48.75H273v.75h1.5c1.29,1.5,1.74.63,3,1.5l4.5,5.25c.34,5.31,1.23,9.45-1.5,13.5h-.75l-2.25,3c-1.26.86-1.69,0-3,1.5h.75L276,78h.75v1.5c1.92,3.6,5.45,8,6,12.75h-7.5c-2.35-5.46-6.2-11.09-7.5-17.25h-4.5V69c2.45.09,6.22.43,7.5-.75,2-.47,2.13-.8,3-2.25,1.5-1.41,0-.38.75-2.25,1.28-3.32,0-3.63-.75-6.75h-1.5l-.75-1.5h-9.75V92.25h-7.5V48.75H238.5v.75H240c1.79,3,4.78,4.43,6,8.25V82.5c-.54,1.66-1.79,3.16-2.25,5.25-2.28,1.33-2.87,3-6,3.75,0-11.13,1.92-23.82,0-34.5-1.35-.71-1.18-1-3-1.5v-.75l-7.5.75v.75L225,57.75V82.5c.85.85.3,0,.75,1.5,3,1.72,4.56,3.19,9,1.5V93c-4.91,0-7.29-1.07-11.25-1.5-1.14-1.84-2.15-1.16-3-2.25-1.33-1.7-1.39-3.88-3-5.25-.25-12.67-3-32.26,7.5-34.5v-.75H210v6c-4.9,1.81-14,.79-20.25.75V66.75h18a15.54,15.54,0,0,1,.75,6c-4.52,1.68-12.93.79-18.75.75V92.25H183c-1.26-3.43-.75-9.61-.75-14.25V48.75H166.5v.75H168c1.15,1.84,2.14,1.15,3,2.25v1.5h.75c.73.92.53,1.45,1.5,2.25V60H166.5v-.75h-.75V57H165l-.75-1.5h-1.5v-.75H156c-2.61,4.27-3.9,3.25-1.5,9,6.17,2.5,17.95,4.44,18.75,12H174c1.24,2.12-1.05,11.34-1.5,12C171,90,161.41,94.69,156,93v-.75h-3c-4.27-1.76-7.36-6.07-8.25-11.25H153v2.25c1.6.91,1.63,1.69,3.75,2.25,2.38,2.27,6.92-.24,9-.75a18.38,18.38,0,0,0,0-8.25l-2.25-.75V75H162v-.75l-5.25-.75c-3.7-1.36-9.24-4.49-9.75-9h-.75c-.66-1-.67-8,0-9H147a7,7,0,0,1,6-6v-.75H138c-1.26,3.43-.75,9.61-.75,14.25V92.25H130.5V84h.75l-.75-9.75V48.75H119.25c.72,3.77,2.54,6.71,3.75,9.75l1.5,6.75c1.42,3.3,3.63,6.49,3.75,11.25.09,3.67,1.1,12.09-.75,14.25L126,84h-.75V82.5h-.75L123,75.75h-.75V73.5h-.75V71.25h-.75V69H120V67.5h-.75V65.25h-.75l-1.5-9h-.75V55.5h-.75v.75c1.44,1.63.75,6.84.75,9.75V92.25h-6c-1.26-3.43-.75-9.61-.75-14.25V48.75H93l11.25,43.5h-7.5V91.5H96c0-2.66-1.1-8.58-2.25-9.75-1.54-1.41-6.92-.83-9.75-.75a25.82,25.82,0,0,1,.75-6h7.5l-4.5-20.25H87c0,5.48-1.63,9.47-3,13.5L82.5,76.5h-.75V81H81L78.75,92.25h-7.5L82.5,48.75H57v.75h1.5v.75h2.25l.75,1.5H63L63.75,54l1.5.75c1.92,3.12,2,11.16,0,14.25l-3,2.25-.75,1.5-2.25.75v2.25c1.74,1.54,1.9,3.75,3,6H63V84h.75v1.5c1.16,2.24,2.62,3.41,3,6.75h-7.5L58.5,90h-.75V88.5H57V86.25h-.75v-1.5H55.5v-1.5h-.75v-1.5H54V79.5h-.75L51.75,75h-4.5V69c2.45.09,6.22.43,7.5-.75,2.32-.53,3.19-1.46,3.75-3.75,1.9-2,0-5.77-.75-7.5-3.4-1.51-6.74-1.54-12-1.5V92.25h-7.5V48.75H31.5V55.5h-12V92.25H12V55.5H0V.75H27v6c-4.9,1.81-14,.79-20.25.75V18.75H25.5V25.5H6.75V42.75h33V42l-2.25-.75c-.61-2.32-2.33-3.89-3-6V9.75L38.25,3h1.5V2.25c.91-.72,1.45-.55,2.25-1.5L52.5,0C53.19,1.83,53.28,4.64,53.25,7.5Z"/>
</svg>