<svg xmlns="http://www.w3.org/2000/svg" viewBox="0 0 744.54 744.54">
    <path d="M 372.27 0 C 166.67 0 0 166.67 0 372.27 c 0 120.15 56.92 227 145.27 295.07 5.15 -6.8 9.13 -12.56 10.46 -15.65 4.61 -10.77 4.61 -32.87 0.57 -48.05 s -11.91 -54 -8.07 -67.66 S 154 516 154 516 s -60 -12.69 -59.39 -45.55 c 5 -16 13.26 -32.87 21.53 -37.48 0 0 -6.54 52.85 48.43 64 11 -9.23 34 -30.18 48.62 -32.1 s 54 -9 54 -9 82.45 -47.28 86.49 -48.24 66.11 -60.35 60.54 -112 c 0 0 3.46 -28.45 2.88 -33.64 s -6.34 -29.21 -5.19 -34.4 l 2.12 -35 s -24 -11.15 -29.6 -32.86 c 10 -2.89 20 -4.42 29.6 4.22 4.23 -2.88 -2.69 -25.56 -10 -33.63 s -32.41 -44.59 -31.77 -61.5 3 -24.8 12 -34 c 13.13 -14.27 18.06 -10.57 18.06 -10.57 s -46.31 35.94 0 75.72 c 5.19 -1.53 7.12 -4.42 7.12 -4.42 s 7.68 -29 14.22 -38 c 6.09 -8.43 18.64 -10.12 19.41 -8.84.67 1.12 -7.59 4 -13.79 13.05 s -13.58 35.08 -7.54 49 c 1.38 3.19 2.69 5.78 5.51 7.61 10.35 6.73 28.12 -5.5 28.12 -5.5 s 11.72 -9.23 9.8 -23.64 2.69.58 2.69.58 a 41.59 41.59 0 0 1 1.54 14 c -.58 7.3 -5.57 10.38 -6.15 14.6 s 3.84 8.46 8.84 8.08 29.79 -7.69 38.06 -27.68 c 1.15 16.53 -10.38 26.71 -10.38 26.71 s -9.8 14.8 -50.36 8.65 -23.45 25.18 -1.15 31.33 15.95 -8.84 108.59 23.45 c 11.34 6.92 10.76 9 11.34 13.65 s -1.92 11.72 -11.72 12.49 a 183 183 0 0 0 -16 11.15 s -14.22 -.2 -21.52 3.45 a 31.88 31.88 0 0 0 -11.34 9.81 s 2.69 27.1 2.11 36.9 -2.5 40 -2.5 45 a 40.31 40.31 0 0 0 1.93 10.77 s 35.94 48 36.51 89.94 c 0 0 79.19 -22.94 84.95 -23.29 s 17.3 15.41 18.26 18.1 a 24.1 24.1 0 0 1 1 9 c -.19 2.69 -19.22 38.82 -20 41.51 s -1.53 54 -1.53 54 -2.12 5 -3.85 5.38 -28.63 28.44 -39 43.44 c -4.81 0 -3.27 -2.69 -3.65 -11.92 a 94.37 94.37 0 0 0 -2.31 -16.91 l .19 -1.54 L 582 533.1 s 16.91 -10.76 17.3 -14.22 4.22 -63.43 6.72 -65.35 -30.56 15.19 -58.62 43.05 c 0 0 -24.79 9.81 -33.82 10.77 C 505.33 514.27 459 535 431 541 s -122.23 16.34 -143.57 49.59 -15.76 39.4 -36.32 55 c -13.73 10.39 -46 32.67 -66.85 48.06 a 370.52 370.52 0 0 0 188.06 50.94 c 205.6 0 372.27 -166.67 372.27 -372.27 S 577.87 0 372.27 0 Z"/>
</svg>