<svg xmlns="http://www.w3.org/2000/svg">
    <path d="M122,0h6c5.19,9.33,9.75,19.13,15.75,27.75l9.75,9a161.56,161.56,0,0,1,14.25,16.5L182,66.75c9.4,12.48,19.53,24.91,27.75,38.25,3.06,5,3.68,10.94,6,16.5,6,14.45,7.5,30.25,7.5,51.75V189c-1.78,7.33-2.57,16.67-5.25,24-6.36,17.4-14.67,31.9-24,45.75h-.75V256.5c4.9-5.17,5.74-12.52,8.25-20.25,5.21-16,14.83-36.45,9.75-60V165C200.47,130.9,180.6,104,155,84.75c-7.45-5.61-16.88-18.31-26.25-21v232.5c-2.44,3.53-1.93,8.46-3.75,12.75-1.1,2.58-3.86,4.52-5.25,6.75-1.49,2.39-1.42,5.17-3,7.5l-8.25,7.5c-13.37,13.37-27.52,23.49-48,30C34.42,369,14.84,354.85,7.25,339l-.75-9.75c0-17.22,5.8-24.85,12.75-34.5,12-16.59,27.67-26.13,48-34.5,8-3.29,23.2-7.19,35.25-3.75,8,2.28,12.77,8,18.75,12V1.5C121.85.73,121.52,1.29,122,0Z"/>
</svg>