<svg xmlns="http://www.w3.org/2000/svg">
	<path d="M 326.6 141.4 c -32.4 -16 -69.4 -15 -104.3 -20.7 -4.1 -0.9 -8.2 -1.7 -9.4 -6.8 -3.2 -16.2 -2.5 -37.4 7.3 -50.7 10 -3.2 20 -8.5 30.2 -0.5 0.9 0.7 2.6 1.6 2.4 -0.4 -0.4 -4.5 3 -4.6 5.6 -5.6 a 4.7 4.7 0 0 0 -0.1 -9.2 c -26.1 5.5 -44.6 16.8 -45.1 -19 1.1 -9.9.4 -24.7 -12.1 -27.2 -3.5 -0.7 -7.9 -2 -10.2 1.6 -3.2 6.2 11 15.2 8.6 24.4 -0.9 5.9 -0.7 11.7 -0.8 17.5 0 10.6 -2.3 14.3 -12.6 17.6 a 229.2 229.2 0 0 1 -28.5 7.4 c -7.9 1.4 -13.5 5.5 -19.3 10.5 -9.8 8.3 -20 16 -30.1 23.9 -3.8 3.8 -9.1.8 -8.4 -4.4 1.3 -11.1 1.3 -26.1 15.5 -26.9 10.2 -2.2 21.2 -1.7 30.8 -5.7 4.9 -2.3 3.8 -9.3 -1.8 -9.2 -49.6 10.6 -34.2 11.1 -38.2 -36.4 -7.6 -18.9 -36 9 -16.1 12.7 9.8 1.9 2.9 12.9 3.8 19.5 -0.3 12.1 -2.3 15 -13.8 18.7 C 56.3 79.1 33.4 89.3 8.6 90.7 c -3.1.3 -8 0.8 -8.1 4.9 2.6 12.1 61.8 -8.8 72 -11.8 2.7 -0.8 5.8 -1.8 7.8 1 3.3 4.3 -9.1 15.2 -11.3 20 -5.2 9.5 -40.3 51.5 -31.9 58.3 43.7 -39.9 55 -87.8 46.4 -12.5 -1.8 6.3 -2.6 25.5 4.4 29 a 16.5 16.5 0 0 0 -2 4.2 c -2.9 20.3 -18.8 42.6 -33.8 56.6 -3.5 2.9 -5.5 6.8 -3.4 11.6 1.2 1.9 3.1 1.3 4.8 1.4 7.6 -0.5 16.2 2.4 21.6 -4.5 14.9 -12.7 36 -51.2 23.7 -69.1 a 39.1 39.1 0 0 0 -4.3 -1.1 2.9 2.9 0 0 1 1.4 -0.5 c 10.1 -7.9 -4.3 -39.6 4.6 -51.4 14.3 -18.1 30.6 -36.6 51.7 -46.5 10.3 -1.4 20.2 -4.4 29.9 -7.8 6.5 -2.7 12.1 4.9 8.7 10.7 -11.1 14.2 -26.2 25 -39.1 37.7 -5.3 4.9 -12 7.9 -16.8 13.2 a 27.8 27.8 0 0 1 -15.4 8.7 c -16.4 1.7 -18.7 21.4 -3 16.6 23.5 -9.6 64 -61.3 79.1 -55.7 7.4 7.9 4 23.1 5.1 36.2 s 0.4 24.8 2.7 37.3 c 1.8 9.9 -2.7 13.2 -11.7 8.5 -11.6 -5.9 -24.3 -10.3 -32.6 -21.4 -1.5 -1.7 -4.8 -5 -7 -3 s 0 3.2 1.1 4.5 a 124.2 124.2 0 0 0 20.9 20.1 c -6.9 -1.6 -14.8 -2 -24.1 -1.4 -6.7 1.8 -18.7 5.3 -6.7 11.2 19.1 7.3 47.7 17.7 41.4 43.5 -3.9 11.6 -4.3 24.6 -14.9 32.8 0 0 -2.5 6.5 -10 14.8 s -21.7 19.9 -44.2 27.4 c -13.6 2 -13.9 -19.1 6.2 -27.6 s 39.7 -7.6 38 -1.4 10 -13.2 10 -13.2 c -27.2 1.7 -57.1 -2.3 -79.9 16.2 -12 9 -13.7 16.7 -11.2 32.1 13 30.3 66.6 1.4 84.4 -12.6 24.8 -18.8 16.6 -17.5 47.8 -5.5 2.8 1.3 4.8 -0.7 5.5 -2.4 4.8 -8.9 -6.7 -14.7 -13.3 -18.1 -10 -4.8 -9.1 -2.3 -5.3 -13.7 s 7.8 -20 8.9 -30.8 c -1.4 -6.5.7 -13.3 -0.7 -19.7 -3.3 -8 -7 -14.3 -11.3 -19.2 a 93.1 93.1 0 0 0 12.8 4.7 c 14.2 2.7 10.5 -13.4 10.7 -22.1 -0.6 -14.1 -2.2 -28.2 -4 -42.2 -1.3 -7.7 7.1 -8.7 12.9 -7.8 14.1 3.4 38.8.4 48.6 11 13.3 9.4 30.7 10.1 46 13.6 C 330.5 156.9 335 145.3 326.6 141.4 Z"/>
</svg>