<svg xmlns="http://www.w3.org/2000/svg">
    <path d="M458.25,58.81c-.06-1.9-.09-2.79-.75-3.75a9.3,9.3,0,0,0-6-6c-7.95-6.61-21.2,3.8-21.75,10.5-2.72,3.37-1.15,7.26-2.25,12.75-3.26,16.16,4.25,19.79,12,27,9.7.39,16.56.54,21-6,3.06-4.52.69-9.32,8.25-9.75,4.08,2.9,9.84,1.7,10.5,8.25-2.28,3.09-.73,6-2.25,10.5-1.29,3.83-5.76,8.48-9,10.5-5.23,3.24-10.77,3.74-19.5,3.75-22.75,0-33.94-6.73-41.25-21.75h-1.5v19.5l-2.25.75c-4.21,4.13-16.19,3-18-2.25-4.41-5.78-2.25-30.17-2.25-40.5,0-4,.88-10.86-.75-13.5-3-8.94-21.12-14.59-30.75-7.5-6.94,5.1-11.69,25-6.75,36.75,2.21,5.23,6.77,7.57,10.5,11.25,7,.58,13.83,1,18.75-2.25,2.53-1.7,2.08-3.63,6-4.5.44,17.72-5.86,24.73-23.25,24.75l-12.75-.75c-8-2.69-15.38-9.79-19.5-16.5-.81.68-.06-.06-.75.75-.89,1.68-.66,10.09-.75,13.5l-4.5,3.75c-6.71.14-10.54-1-15-2.25-5.18-8.77-4.56-24.94-4.5-39a10.24,10.24,0,0,0-3-.75c-7.71,4.45-20.25-2.53-24,8.25-2.31,2.86-1.15,7.24-.75,11.25,10.59,7.3,12.4,5.48,25.5,2.25v9.75c-4.19,3.48-5.44,7.22-12,9h-9c-16,0-22.06-6.5-27-17.25-2,1.46-1.55,2.43-3,4.5-3.8,5.4-12.39,10.85-19.5,12.75H213.75c-25.89,0-39.74-16.38-39.75-41.25-14.77,1.1-36.73,2.33-50.25-.75v-1.5c-.81-1.21-.91-3.73-.75-6,.76-10.58,17.89-8.7,29.25-8.25-.15-1.75-.14-2.12-.75-3-2-6.4-7.53-8.55-16.5-8.25-3.09,2.4-7.47,3.59-9.75,6.75-5.4,7.46-7.5,25.27-3,36,1.67,4,6.77,6.18,9.75,9,6,.5,12.12.46,17.25-.75,1.33-2.18,4-3.28,5.25-5.25,1.59-2.43,1.25-8.43,3.75-9.75h4.5c5.62,4,12,2.75,12,12.75-11.36,14.72-10.7,20.25-37.5,20.25-4.33,0-9.49.53-12.75-.75-8.77-3.47-13.32-9.55-20.25-14.25.19,7.07-2.36,12.56-7.5,14.25-1.69,1.44-7.33,2.44-9.75.75-8.23-3-9.75-12.6-14.25-19.5-3.15-4.84-7.6-9.75-11.25-14.25-1.32.47-.73.14-1.5.75-4.24,2.81-6.24,7.71-9.75,11.25-7.73,7.8-16.14,14.82-24,22.5-11.88.34-24.92-7.39-26.25-16.5,11.81-7.49,39.84-27.54,44.25-40.5H43.5C40.65,52,24.25,35.83,18,28.81,13.76,24,6.86,21.11,6,13.06c7.12-4.14,12.46.31,18,3.75,8.53,5.29,16.07,10,24,15.75,3.84,2.79,5.32,7.4,11.25,8.25,2.79-4.42,13.2-17.46,13.5-22.5.15-2.58-3-8.71-3-15,12.55-8.17,20.47,2,27,9,.3,15.82-6.46,26.77-12.75,36.75-2.35,3.73-5.77,5.94-6.75,11.25,6.56,6.24,13.09,17.75,20.25,22.5V65.56c1.45-2.12,1.16-4.85,2.25-7.5,3.08-7.5,8.07-15.81,14.25-20.25a56,56,0,0,1,14.25-6.75c18.91-5.7,36.67,5.52,42.75,15.75,1.25,3.74,2.5,7.5,3.75,11.25h.75v-.75c2.27-2.53,2.6-6,4.5-9,2.75-4.39,9.08-10.8,13.5-13.5,13.76-8.43,50.47-.94,55.5,9,.66,1,.67,1.85.75,3.75-3.41,3.79-3.56,9.36-9,11.25-1,.65-1.85.67-3.75.75-7.13-7.09-13.58-12.29-27-11.25-2.7,3.37-7.91,5.68-9.75,9.75-3.69,8.17-3.83,29,.75,36,2.25,2,4.5,4,6.75,6,4.27.41,10.11,1.58,13.5-.75,10.65-4,8.3-22.29,16.5-24,3,2.78,7.65,3.79,10.5,6.75,1.32-.48.73-.15,1.5-.75,5.94-6,9.32-10.65,18.75-13.5,8.67-2.63,23-.47,30-5.25,1-1.5.83-4.89.75-7.5a8.82,8.82,0,0,1-1.5-3.75c-2.4-1.31-4.74-3.89-7.5-4.5-9.14-2-17.88,8.48-21.75,12.75-9,.42-17.73-1.51-18-9.75q5.25-5.62,10.5-11.25c8.41-6.06,34.38-11.3,46.5-3.75q4.88,4.48,9.75,9c2,3,1.82,6.75,4.5,9v.75c.76.74.74-.74.75-.75,1.76-1.91,2.18-4.58,3.75-6.75,5.43-7.51,23.19-19.86,40.5-15,6.13,1.71,9.94,6.71,17.25,7.5,1.5-4.43.81-12.32.75-18-3.92-4-7.35-11.92-6-18.75h1.5c9.39-6.33,22.2,5.73,25.5,9,.19,13.64.73,29.46.75,44.25H408c1.94-14,25.72-29.48,47.25-24,10.09,2.56,19.19,10.1,23.25,18.75h.75v-.75c5.49-6.15,7.94-13.34,16.5-16.5,12-4.44,29.73-.52,38.25,3,2.73,1.12,9.22,1.38,10.5,3.75v10.5c-2,2.71-1.63,5.43-5.25,6.75-3.94,2.15-7.24-2.19-9.75-3.75-6.07-3.8-17.21-6.9-25.5-3.75-1.08,2-1.5,3.16-1.5,6.75,12,7.27,39,12.66,44.25,25.5,1.46,3.57,1,10.25.75,15a19.3,19.3,0,0,1-3,9.75c-2.6,3.83-9.57,8.94-14.25,10.5-14.71,4.89-44.8-1.32-49.5-9-3.95-6.45,1.81-15.56,3-20.25,2.41-.8,4-2.41,6-1.5,4.28,2.16,5.78,8.57,9.75,11.25,5.47,3.68,14.81,4.63,22.5,3.75,2.83-4.12,4.16-4.28,3.75-10.5-3.18-2-6-5.18-9.75-6.75-8-3.39-16.18-4.09-24-7.5-3.86-1.69-6.63-5.32-10.5-6.75-.33,2.68-.63,3.22-2.25,4.5-4.94,3.75-37.14,1.58-46.5,1.5v-.75H432c-.66-4.89-.89-10.25.75-14.25C438.83,57.89,449.84,58.75,458.25,58.81Z"/>
</svg>