<svg xmlns="http://www.w3.org/2000/svg">
    <path d="M84.73,19.64h41.09c-9.82,40.72-16,67.27-16,96.36,0,5.09,0,44.36,14.91,44.36,7.63,0,14.18-6.91,14.18-13.09,0-1.82,0-2.54-2.55-8-9.82-25.09-9.82-56.36-9.82-58.91a283.69,283.69,0,0,1,7.64-60.72h40.73c4.72,0,16.72,0,16.72-11.64,0-8-6.9-8-13.45-8H58.54C50.18,0,37.82,0,21.09,17.82,11.64,28.36,0,47.64,0,49.82s1.82,2.91,4,2.91c2.55,0,2.91-1.09,4.73-3.28C27.64,19.64,46.54,19.64,55.64,19.64H76.36c-8,27.27-17.09,58.9-46.91,122.54-2.9,5.82-2.9,6.55-2.9,8.73,0,7.63,6.54,9.45,9.81,9.45,10.55,0,13.46-9.45,17.82-24.73C60,117.09,60,116.36,63.64,101.82Z"/>
</svg>